<svg xmlns="http://www.w3.org/2000/svg" viewBox="0 0 169.3 40"><g fill="#1c1080"><path d="M56.1 16.1a5.5 5.5 0 0 1-2.5-2.5 7.4 7.4 0 0 1-.9-3.6 7.2 7.2 0 0 1 .9-3.7 5.8 5.8 0 0 1 2.5-2.4 6.9 6.9 0 0 1 3.6-.9 7.4 7.4 0 0 1 4.6 1.4v1.5a6.1 6.1 0 0 0-4.5-1.6 5.7 5.7 0 0 0-2.9.7 4.8 4.8 0 0 0-2 2 5.6 5.6 0 0 0-.8 3 6.1 6.1 0 0 0 .8 3 4.6 4.6 0 0 0 2 1.9 5.4 5.4 0 0 0 2.9.7 9.5 9.5 0 0 0 2.5-.3 5.7 5.7 0 0 0 2.1-1.3v1.5a6.9 6.9 0 0 1-4.8 1.5 6.8 6.8 0 0 1-3.5-.9zm13.2 0a6 6 0 0 1-2.5-2.5 7.4 7.4 0 0 1-.9-3.6 7.5 7.5 0 0 1 .9-3.7 6.4 6.4 0 0 1 2.5-2.4 7.6 7.6 0 0 1 7.2 0A6.4 6.4 0 0 1 79 6.3a7.2 7.2 0 0 1 .9 3.7 7.4 7.4 0 0 1-.9 3.6 6 6 0 0 1-2.5 2.5 7.4 7.4 0 0 1-3.6.9 6.9 6.9 0 0 1-3.6-.9zm6.3-1.2a5.2 5.2 0 0 0 2-1.9 6 6 0 0 0 .7-3 5.8 5.8 0 0 0-.7-3 5.2 5.2 0 0 0-2-1.9 5.1 5.1 0 0 0-2.8-.7 5.5 5.5 0 0 0-2.8.7A5 5 0 0 0 68.1 7a6.1 6.1 0 0 0-.8 3 5.6 5.6 0 0 0 .8 3 4.6 4.6 0 0 0 1.9 2 5.5 5.5 0 0 0 2.8.7 7.7 7.7 0 0 0 2.8-.8zm4.9-11.6h1.6l4.5 11.3L91 3.3h1.6l-5.3 13.4h-1.4zm14.4 0h1.5v13.4h-1.5zm4.2 0h4.1a7 7 0 0 1 3.7.8 6 6 0 0 1 2.5 2.2 8 8 0 0 1 .8 3.6 6.2 6.2 0 0 1-1.9 5 7.5 7.5 0 0 1-5.4 1.8h-3.8zm3.7 12.1a6.5 6.5 0 0 0 4.5-1.4 5.5 5.5 0 0 0 1.4-4.1 5.3 5.3 0 0 0-1.4-3.9 5.3 5.3 0 0 0-4.1-1.5h-2.6v10.9zm9.3-5h5.9v1.2h-5.9zm10.8-5.5l-3 2.1V5.6l3.1-2.3h1.3v13.4h-1.5V4.9zm5.5 11.8v-1.3a3.4 3.4 0 0 0 1.5.2 4.2 4.2 0 0 0 3.4-1.3 6.8 6.8 0 0 0 1.3-4.2 2.3 2.3 0 0 1-1.5 1.2 4.8 4.8 0 0 1-2.2.5 4 4 0 0 1-2.2-.6 3.9 3.9 0 0 1-1.6-1.5 4.6 4.6 0 0 1-.5-2.3 3.8 3.8 0 0 1 .6-2.3 4.1 4.1 0 0 1 1.6-1.6 6.1 6.1 0 0 1 2.5-.6 4.4 4.4 0 0 1 3.5 1.5 5.6 5.6 0 0 1 1.3 4.1 10.7 10.7 0 0 1-1.5 6.2 5.3 5.3 0 0 1-4.6 2.2 2.7 2.7 0 0 1-1.6-.2zm5.3-7a3 3 0 0 0 .9-2.3 2.6 2.6 0 0 0-.4-1.5 3.2 3.2 0 0 0-1.1-1.2 3.3 3.3 0 0 0-1.7-.4 3 3 0 0 0-2.3.9 3.2 3.2 0 0 0-.9 2.3 2.9 2.9 0 0 0 .9 2.3 3.4 3.4 0 0 0 2.3.8 3.6 3.6 0 0 0 2.3-.9zM54.4 35.3a5.8 5.8 0 0 1-1.7-.5v-1.4a8.4 8.4 0 0 0 3.8.8 4.9 4.9 0 0 0 2.5-.5 2.2 2.2 0 0 0 .5-3 2.2 2.2 0 0 0-.9-.7l-2.2-1a7.9 7.9 0 0 1-2.8-1.7 3 3 0 0 1-.8-2.3 4.1 4.1 0 0 1 .5-1.8 4 4 0 0 1 1.6-1.2 5.1 5.1 0 0 1 2.2-.4l1.9.2 1.7.5v1.4a7.8 7.8 0 0 0-3.3-.7 5.4 5.4 0 0 0-2.4.5 1.9 1.9 0 0 0-.7 1.6 2 2 0 0 0 .3 1.1 3 3 0 0 0 1 .9l1.9.9 2.1 1a2.3 2.3 0 0 1 1.2 1.2 3.6 3.6 0 0 1 .5 1.9 3.4 3.4 0 0 1-1.2 2.6 6 6 0 0 1-3.6.9 15.2 15.2 0 0 1-2.1-.3zm12.3-12.1h-4.3v-1.3h10v1.3h-4.3v12.1h-1.5V23.2zM77 21.9h1.3l5.3 13.4h-1.5l-1.4-3.6h-6.2l-1.4 3.6h-1.6zm-1.3-1.5a2.4 2.4 0 0 1-.7-1.8h1.1a1.3 1.3 0 0 0 .4 1 1.7 1.7 0 0 0 1.2.5 1.6 1.6 0 0 0 1.1-.5 1.2 1.2 0 0 0 .4-1h1.2a2.5 2.5 0 0 1-.8 1.8 2.7 2.7 0 0 1-1.9.7 3 3 0 0 1-2-.7zm4.6 10l-2.7-6.8-2.6 6.8zm5.2-8.5H87L92.1 33l5.1-11.1h1.5v13.4h-1.4V25l-4.8 10.3h-.7L87 25v10.3h-1.4V21.9zm28.1 0h1.3l5.3 13.4h-1.5l-1.4-3.6h-6.2l-1.4 3.6h-1.6zm3.3 8.5l-2.7-6.8-2.6 6.8zm7.6 4.3a6.7 6.7 0 0 1-2.5-2.5 6.9 6.9 0 0 1-.9-3.6 6.9 6.9 0 0 1 .9-3.6 6.7 6.7 0 0 1 2.5-2.5 7.5 7.5 0 0 1 3.7-.9 7.6 7.6 0 0 1 4.6 1.4v1.5a6.8 6.8 0 0 0-7.4-.9 5.8 5.8 0 0 0-2.1 2 7 7 0 0 0-.7 3 7.3 7.3 0 0 0 .7 3 5.8 5.8 0 0 0 2.1 2 6.4 6.4 0 0 0 2.8.7 10.1 10.1 0 0 0 2.6-.4 5 5 0 0 0 2.1-1.2V34a7.1 7.1 0 0 1-4.8 1.5 7.3 7.3 0 0 1-3.6-.8zm15.2-12.8h1.4l5.3 13.4h-1.6l-1.4-3.6h-6.1l-1.5 3.6h-1.5zm3.3 8.5l-2.6-6.8-2.7 6.8zm6.2 4.9a5.8 5.8 0 0 1-1.7-.5v-1.4a8.4 8.4 0 0 0 3.8.8 5.7 5.7 0 0 0 2.6-.5 2 2 0 0 0 .8-1.7 1.8 1.8 0 0 0-.4-1.3 2.2 2.2 0 0 0-.9-.7 12 12 0 0 0-2.2-1 7.9 7.9 0 0 1-2.8-1.7 3 3 0 0 1-.8-2.3 4.1 4.1 0 0 1 .5-1.8 4 4 0 0 1 1.6-1.2 7.2 7.2 0 0 1 2.2-.4l2 .2 1.6.5v1.4a7.8 7.8 0 0 0-3.3-.7 4.6 4.6 0 0 0-2.3.5 1.7 1.7 0 0 0-.8 1.6 2 2 0 0 0 .3 1.1 3 3 0 0 0 1 .9l1.9.9 2.1 1a2.3 2.3 0 0 1 1.2 1.2 3.6 3.6 0 0 1 .5 1.9 3.4 3.4 0 0 1-1.2 2.6 6 6 0 0 1-3.6.9 15.2 15.2 0 0 1-2.1-.3zm13.4-13.4h1.3l5.4 13.4h-1.5l-1.5-3.6h-6.1l-1.5 3.6h-1.5zm-1.3-1.5a2.4 2.4 0 0 1-.7-1.8h1.1a1.8 1.8 0 0 0 .4 1 1.7 1.7 0 0 0 1.2.5 1.4 1.4 0 0 0 1.1-.5 1.2 1.2 0 0 0 .4-1h1.2a2.9 2.9 0 0 1-.7 1.8 3.2 3.2 0 0 1-2 .7 3 3 0 0 1-2-.7zm4.6 10l-2.7-6.8-2.6 6.8z"/><path d="M53 36.5H169.2V38.59H53z"/></g><circle cx="20" cy="20" r="20" fill="#ffbd59"/></svg>
