<svg width="76" height="102" viewBox="0 0 76 102" fill="none" xmlns="http://www.w3.org/2000/svg">
    <path opacity="0.253397" fill-rule="evenodd" clip-rule="evenodd" d="M0.363714 81.6181C0.363714 81.6181 0.934909 78.463 3.18108 85.8823C5.42724 93.3016 30.8262 109.54 39.3282 96.3891C47.8303 83.2382 59.8504 97.9952 68.1536 94.0484C76.4569 90.1016 77.7721 84.8927 71.5831 72.3417C65.3941 59.7907 80.6182 44.4968 65.4425 34.6644C50.2668 24.8319 62.0152 27.2474 62.0152 27.2474L61.9379 67.3901L41.6238 85.807L0.363714 81.6181Z" fill="#F2994A"/>
    <path opacity="0.518059" fill-rule="evenodd" clip-rule="evenodd" d="M60.5929 42.5461C60.5929 42.5461 58.8284 42.4435 62.7359 40.6932C66.6434 38.9429 73.8157 23.7465 66.0484 19.9222C58.2812 16.0978 65.5444 8.42575 62.8258 4.08655C60.1072 -0.252643 57.169 -0.628618 50.7197 3.65805C44.2704 7.94472 31.8284 -3.50456 27.4718 5.58396C23.1152 14.6725 30.5154 3.63802 30.5154 3.63802L48.6607 9.34632L60.1046 19.3672L60.5929 42.5461Z" fill="#F2994A"/>
</svg>
