<svg version="1.1" id="Layer_1" xmlns="http://www.w3.org/2000/svg" x="0" y="0" viewBox="0 0 351.2 67" xml:space="preserve"><style>.st1{fill:#1c1080}</style><circle cx="33.5" cy="33.5" r="33.5" fill="#ffbd59"/><path class="st1" d="M87.6 61.2h263.6v3.5H87.6zM93.9 26.9c-1.8-1-3.2-2.3-4.2-4.1-1-1.8-1.5-3.8-1.5-6.1s.5-4.4 1.5-6.1c1-1.8 2.4-3.1 4.2-4.1 1.8-1 3.8-1.5 6.1-1.5 3.1 0 5.7.8 7.7 2.4v2.4c-1.9-1.7-4.4-2.6-7.5-2.6-1.8 0-3.4.4-4.9 1.2-1.4.8-2.6 1.9-3.4 3.3-.8 1.4-1.2 3.1-1.2 5s.4 3.6 1.2 5c.8 1.4 1.9 2.5 3.4 3.3 1.4.8 3 1.2 4.8 1.2 1.6 0 3-.2 4.3-.6 1.3-.4 2.4-1.1 3.5-2.1V26c-1.9 1.7-4.6 2.5-8 2.5-2.2-.2-4.2-.7-6-1.6zM116.1 26.8c-1.8-1-3.2-2.3-4.2-4.1-1-1.8-1.5-3.8-1.5-6.1s.5-4.3 1.5-6.1c1-1.8 2.4-3.1 4.2-4.1s3.8-1.5 6-1.5 4.2.5 6 1.5 3.2 2.4 4.2 4.1c1 1.8 1.5 3.8 1.5 6.1s-.5 4.3-1.5 6.1c-1 1.8-2.4 3.1-4.2 4.1-1.8 1-3.8 1.5-6 1.5s-4.2-.5-6-1.5zm10.6-1.9c1.4-.8 2.5-1.9 3.3-3.3.8-1.4 1.2-3.1 1.2-5s-.4-3.5-1.2-4.9c-.8-1.4-1.9-2.5-3.3-3.3-1.4-.8-3-1.2-4.7-1.2-1.7 0-3.3.4-4.7 1.2s-2.5 1.9-3.3 3.3c-.8 1.4-1.2 3.1-1.2 5s.4 3.6 1.2 5c.8 1.4 1.9 2.5 3.3 3.3 1.4.8 3 1.2 4.7 1.2s3.3-.5 4.7-1.3zM134.9 5.4h2.6l7.5 18.9 7.5-18.9h2.6l-8.9 22.4h-2.3l-9-22.4zM159 5.4h2.5v22.4H159V5.4zM166 5.4h6.9c2.4 0 4.5.4 6.2 1.3 1.8.9 3.1 2.2 4.1 3.8.9 1.7 1.4 3.6 1.4 5.9 0 3.7-1.1 6.6-3.2 8.5s-5.1 2.8-9 2.8H166V5.4zm6.2 20.3c3.4 0 5.9-.8 7.5-2.3 1.6-1.5 2.4-3.8 2.4-6.9 0-2.8-.8-5-2.3-6.6-1.6-1.6-3.9-2.4-6.9-2.4h-4.4v18.2h3.7zM187.8 17.3h9.8v2.1h-9.8v-2.1zM205.8 8.2l-5 3.6V9.3l5.2-3.8h2.2v22.4h-2.5V8.2zM215 28v-2.2c.8.3 1.6.4 2.6.4 2.5 0 4.4-.8 5.7-2.3 1.3-1.5 2-3.8 2.2-6.9-.6.9-1.4 1.6-2.5 2-1.1.5-2.3.7-3.7.7-1.4 0-2.7-.3-3.8-.9s-2-1.5-2.6-2.6-.9-2.4-.9-3.8c0-1.5.3-2.7 1-3.9.6-1.1 1.6-2 2.7-2.6 1.2-.6 2.6-1 4.2-1 2.5 0 4.4.8 5.9 2.4s2.2 3.9 2.2 7c0 4.5-.9 8-2.6 10.4-1.8 2.4-4.3 3.6-7.7 3.6-1 0-1.9-.1-2.7-.3zm8.9-11.8c1-.9 1.6-2.2 1.6-3.8 0-.9-.2-1.8-.7-2.6-.5-.8-1.1-1.4-1.9-1.9s-1.8-.7-2.8-.7c-1.6 0-2.9.5-3.9 1.5s-1.5 2.3-1.5 3.9.5 2.9 1.5 3.8c1 .9 2.3 1.4 3.9 1.4 1.5-.2 2.8-.7 3.8-1.6zM89 59.4c-.6-.1-1.1-.2-1.4-.4v-2.2c.3.1.8.2 1.3.3.5.1 1 .1 1.5.1 2.3 0 3.4-1.1 3.4-3.4V36.6h2.5V54c0 1.7-.5 3.1-1.5 4-1 .9-2.3 1.4-4 1.4-.6.1-1.2 0-1.8 0zM102.7 57.2c-1.5-1.5-2.3-3.6-2.3-6.2V36.6h2.5v14.6c0 2 .6 3.5 1.7 4.5s2.7 1.5 4.7 1.5 3.6-.5 4.7-1.5 1.7-2.5 1.7-4.5V36.6h2.5V51c0 2.7-.8 4.8-2.3 6.2-1.5 1.5-3.7 2.2-6.7 2.2-2.8.1-5-.7-6.5-2.2zM122.6 36.6h8.6c2.3 0 4.1.5 5.3 1.6 1.2 1.1 1.8 2.7 1.8 4.8 0 1.6-.5 3-1.4 4.1-1 1.1-2.3 1.8-4 2.1l5.3 9.6h-2.6l-5.3-9.5H125V59h-2.5V36.6zm8.3 10.8c1.5 0 2.7-.4 3.6-1.1.9-.7 1.3-1.8 1.3-3.2 0-1.6-.4-2.7-1.3-3.4-.9-.7-2.1-1-3.6-1h-5.8v8.6h5.8zM142.2 36.6h2.4l12.3 18.1V36.6h2.5V59H157l-12.3-18.2V59h-2.5V36.6zM172.2 36.6h2.3l8.9 22.4h-2.6l-2.4-6h-10.3l-2.4 6h-2.6l9.1-22.4zm5.6 14.3l-4.5-11.4-4.4 11.4h8.9zM187.3 36.6h2.5v20.3h11.9V59h-14.4V36.6zM216.9 36.6h2.6l8.5 18.5 8.5-18.5h2.6V59h-2.5V41.7l-8 17.3h-1.3l-7.9-17.3V59h-2.5V36.6zM243.5 36.6h14.4v2.1H246v8h8.9v2.1H246v8h11.9V59h-14.4V36.6zM261.7 36.6h6.9c2.4 0 4.5.4 6.2 1.3 1.8.9 3.1 2.2 4.1 3.8s1.4 3.6 1.4 5.9c0 3.7-1.1 6.6-3.2 8.5s-5.1 2.8-9 2.8h-6.4V36.6zm6.3 20.3c3.4 0 5.9-.8 7.5-2.3 1.6-1.5 2.4-3.8 2.4-6.9 0-2.8-.8-5-2.3-6.6-1.6-1.6-3.9-2.4-6.9-2.4h-4.4v18.2h3.7zM284.2 36.6h2.5V59h-2.5V36.6zM296.3 58c-1.8-1-3.2-2.3-4.2-4.1-1-1.8-1.5-3.8-1.5-6.1s.5-4.4 1.5-6.1c1-1.8 2.4-3.1 4.2-4.1 1.8-1 3.8-1.5 6.1-1.5 3.1 0 5.7.8 7.7 2.4V41c-1.9-1.7-4.4-2.6-7.5-2.6-1.8 0-3.4.4-4.9 1.2-1.4.8-2.6 1.9-3.4 3.3s-1.2 3.1-1.2 5 .4 3.6 1.2 5c.8 1.4 1.9 2.5 3.4 3.3s3 1.2 4.8 1.2c1.6 0 3-.2 4.3-.6 1.3-.4 2.4-1.1 3.5-2.1v2.5c-1.9 1.7-4.6 2.5-8 2.5-2.2-.2-4.3-.7-6-1.7zM321.6 36.6h2.3l8.9 22.4h-2.6l-2.4-6h-10.3l-2.4 6h-2.6l9.1-22.4zm5.6 14.3l-4.5-11.4-4.4 11.4h8.9zM336.7 36.6h2.5v20.3h11.9V59h-14.4V36.6z"/></svg>