<?xml version="1.0" encoding="utf-8"?>
<!-- Generator: Adobe Illustrator 21.1.0, SVG Export Plug-In . SVG Version: 6.00 Build 0)  -->
<svg version="1.1" id="Layer_1" xmlns="http://www.w3.org/2000/svg" xmlns:xlink="http://www.w3.org/1999/xlink" x="0px" y="0px"
	 viewBox="0 0 351.2 67" style="enable-background:new 0 0 351.2 67;" xml:space="preserve">
<style type="text/css">
	.st0{fill:#FFBD59;}
	.st1{fill:#1C1080;}
</style>
<circle class="st0" cx="33.5" cy="33.5" r="33.5"/>
<g>
	<rect x="87.6" y="61.2" class="st1" width="263.6" height="3.5"/>
	<g>
		<path class="st1" d="M93.9,26.9c-1.8-1-3.2-2.3-4.2-4.1c-1-1.8-1.5-3.8-1.5-6.1c0-2.3,0.5-4.4,1.5-6.1c1-1.8,2.4-3.1,4.2-4.1
			c1.8-1,3.8-1.5,6.1-1.5c3.1,0,5.7,0.8,7.7,2.4v2.4c-1.9-1.7-4.4-2.6-7.5-2.6c-1.8,0-3.4,0.4-4.9,1.2c-1.4,0.8-2.6,1.9-3.4,3.3
			c-0.8,1.4-1.2,3.1-1.2,5c0,1.9,0.4,3.6,1.2,5c0.8,1.4,1.9,2.5,3.4,3.3c1.4,0.8,3,1.2,4.8,1.2c1.6,0,3-0.2,4.3-0.6
			c1.3-0.4,2.4-1.1,3.5-2.1v2.5c-1.9,1.7-4.6,2.5-8,2.5C97.7,28.3,95.7,27.8,93.9,26.9z"/>
		<path class="st1" d="M116.1,26.8c-1.8-1-3.2-2.3-4.2-4.1c-1-1.8-1.5-3.8-1.5-6.1c0-2.3,0.5-4.3,1.5-6.1c1-1.8,2.4-3.1,4.2-4.1
			s3.8-1.5,6-1.5s4.2,0.5,6,1.5s3.2,2.4,4.2,4.1c1,1.8,1.5,3.8,1.5,6.1c0,2.3-0.5,4.3-1.5,6.1c-1,1.8-2.4,3.1-4.2,4.1
			c-1.8,1-3.8,1.5-6,1.5S117.9,27.8,116.1,26.8z M126.7,24.9c1.4-0.8,2.5-1.9,3.3-3.3c0.8-1.4,1.2-3.1,1.2-5c0-1.9-0.4-3.5-1.2-4.9
			c-0.8-1.4-1.9-2.5-3.3-3.3c-1.4-0.8-3-1.2-4.7-1.2c-1.7,0-3.3,0.4-4.7,1.2s-2.5,1.9-3.3,3.3c-0.8,1.4-1.2,3.1-1.2,5
			c0,1.9,0.4,3.6,1.2,5c0.8,1.4,1.9,2.5,3.3,3.3c1.4,0.8,3,1.2,4.7,1.2S125.3,25.7,126.7,24.9z"/>
		<path class="st1" d="M134.9,5.4h2.6l7.5,18.9l7.5-18.9h2.6l-8.9,22.4h-2.3L134.9,5.4z"/>
		<path class="st1" d="M159,5.4h2.5v22.4H159V5.4z"/>
		<path class="st1" d="M166,5.4h6.9c2.4,0,4.5,0.4,6.2,1.3c1.8,0.9,3.1,2.2,4.1,3.8c0.9,1.7,1.4,3.6,1.4,5.9c0,3.7-1.1,6.6-3.2,8.5
			s-5.1,2.8-9,2.8H166V5.4z M172.2,25.7c3.4,0,5.9-0.8,7.5-2.3c1.6-1.5,2.4-3.8,2.4-6.9c0-2.8-0.8-5-2.3-6.6
			c-1.6-1.6-3.9-2.4-6.9-2.4h-4.4v18.2H172.2z"/>
		<path class="st1" d="M187.8,17.3h9.8v2.1h-9.8V17.3z"/>
		<path class="st1" d="M205.8,8.2l-5,3.6V9.3l5.2-3.8h2.2v22.4h-2.5V8.2z"/>
		<path class="st1" d="M215,28v-2.2c0.8,0.3,1.6,0.4,2.6,0.4c2.5,0,4.4-0.8,5.7-2.3c1.3-1.5,2-3.8,2.2-6.9c-0.6,0.9-1.4,1.6-2.5,2
			c-1.1,0.5-2.3,0.7-3.7,0.7c-1.4,0-2.7-0.3-3.8-0.9s-2-1.5-2.6-2.6s-0.9-2.4-0.9-3.8c0-1.5,0.3-2.7,1-3.9c0.6-1.1,1.6-2,2.7-2.6
			c1.2-0.6,2.6-1,4.2-1c2.5,0,4.4,0.8,5.9,2.4s2.2,3.9,2.2,7c0,4.5-0.9,8-2.6,10.4c-1.8,2.4-4.3,3.6-7.7,3.6
			C216.7,28.3,215.8,28.2,215,28z M223.9,16.2c1-0.9,1.6-2.2,1.6-3.8c0-0.9-0.2-1.8-0.7-2.6c-0.5-0.8-1.1-1.4-1.9-1.9
			s-1.8-0.7-2.8-0.7c-1.6,0-2.9,0.5-3.9,1.5c-1,1-1.5,2.3-1.5,3.9c0,1.6,0.5,2.9,1.5,3.8c1,0.9,2.3,1.4,3.9,1.4
			C221.6,17.6,222.9,17.1,223.9,16.2z"/>
		<path class="st1" d="M89,59.4c-0.6-0.1-1.1-0.2-1.4-0.4v-2.2c0.3,0.1,0.8,0.2,1.3,0.3c0.5,0.1,1,0.1,1.5,0.1
			c2.3,0,3.4-1.1,3.4-3.4V36.6h2.5V54c0,1.7-0.5,3.1-1.5,4c-1,0.9-2.3,1.4-4,1.4C90.2,59.5,89.6,59.4,89,59.4z"/>
		<path class="st1" d="M102.7,57.2c-1.5-1.5-2.3-3.6-2.3-6.2V36.6h2.5v14.6c0,2,0.6,3.5,1.7,4.5c1.1,1,2.7,1.5,4.7,1.5
			s3.6-0.5,4.7-1.5c1.1-1,1.7-2.5,1.7-4.5V36.6h2.5V51c0,2.7-0.8,4.8-2.3,6.2c-1.5,1.5-3.7,2.2-6.7,2.2
			C106.4,59.5,104.2,58.7,102.7,57.2z"/>
		<path class="st1" d="M122.6,36.6h8.6c2.3,0,4.1,0.5,5.3,1.6c1.2,1.1,1.8,2.7,1.8,4.8c0,1.6-0.5,3-1.4,4.1c-1,1.1-2.3,1.8-4,2.1
			l5.3,9.6h-2.6l-5.3-9.5h-5.3V59h-2.5V36.6z M130.9,47.4c1.5,0,2.7-0.4,3.6-1.1c0.9-0.7,1.3-1.8,1.3-3.2c0-1.6-0.4-2.7-1.3-3.4
			c-0.9-0.7-2.1-1-3.6-1h-5.8v8.6H130.9z"/>
		<path class="st1" d="M142.2,36.6h2.4l12.3,18.1V36.6h2.5V59H157l-12.3-18.2V59h-2.5V36.6z"/>
		<path class="st1" d="M172.2,36.6h2.3l8.9,22.4h-2.6l-2.4-6h-10.3l-2.4,6h-2.6L172.2,36.6z M177.8,50.9l-4.5-11.4l-4.4,11.4H177.8z
			"/>
		<path class="st1" d="M187.3,36.6h2.5v20.3h11.9V59h-14.4V36.6z"/>
		<path class="st1" d="M216.9,36.6h2.6l8.5,18.5l8.5-18.5h2.6V59h-2.5V41.7L228.6,59h-1.3l-7.9-17.3V59h-2.5V36.6z"/>
		<path class="st1" d="M243.5,36.6h14.4v2.1H246v8h8.9v2.1H246v8h11.9V59h-14.4V36.6z"/>
		<path class="st1" d="M261.7,36.6h6.9c2.4,0,4.5,0.4,6.2,1.3c1.8,0.9,3.1,2.2,4.1,3.8s1.4,3.6,1.4,5.9c0,3.7-1.1,6.6-3.2,8.5
			s-5.1,2.8-9,2.8h-6.4V36.6z M268,56.9c3.4,0,5.9-0.8,7.5-2.3c1.6-1.5,2.4-3.8,2.4-6.9c0-2.8-0.8-5-2.3-6.6
			c-1.6-1.6-3.9-2.4-6.9-2.4h-4.4v18.2H268z"/>
		<path class="st1" d="M284.2,36.6h2.5V59h-2.5V36.6z"/>
		<path class="st1" d="M296.3,58c-1.8-1-3.2-2.3-4.2-4.1c-1-1.8-1.5-3.8-1.5-6.1s0.5-4.4,1.5-6.1c1-1.8,2.4-3.1,4.2-4.1
			c1.8-1,3.8-1.5,6.1-1.5c3.1,0,5.7,0.8,7.7,2.4V41c-1.9-1.7-4.4-2.6-7.5-2.6c-1.8,0-3.4,0.4-4.9,1.2c-1.4,0.8-2.6,1.9-3.4,3.3
			s-1.2,3.1-1.2,5s0.4,3.6,1.2,5c0.8,1.4,1.9,2.5,3.4,3.3s3,1.2,4.8,1.2c1.6,0,3-0.2,4.3-0.6c1.3-0.4,2.4-1.1,3.5-2.1v2.5
			c-1.9,1.7-4.6,2.5-8,2.5C300.1,59.5,298,59,296.3,58z"/>
		<path class="st1" d="M321.6,36.6h2.3l8.9,22.4h-2.6l-2.4-6h-10.3l-2.4,6h-2.6L321.6,36.6z M327.2,50.9l-4.5-11.4l-4.4,11.4H327.2z
			"/>
		<path class="st1" d="M336.7,36.6h2.5v20.3h11.9V59h-14.4V36.6z"/>
	</g>
</g>
</svg>
